<svg xmlns="http://www.w3.org/2000/svg" viewBox="150 250 500 625" width="800" height="1000"><defs><filter id="blur" x="-50%" y="-50%" width="200%" height="200%"><feGaussianBlur stdDeviation="18"/></filter><filter id="soft" x="-50%" y="-50%" width="200%" height="200%"><feGaussianBlur stdDeviation="60"/></filter><linearGradient id="g1" gradientUnits="userSpaceOnUse" x1="150.0" x2="650.0" y1="0" y2="0"><stop offset="0" stop-color="#6282AE"/><stop offset="0.22" stop-color="#9DBBE0"/><stop offset="0.4" stop-color="#CFE0F4"/><stop offset="0.62" stop-color="#9DBBE0"/><stop offset="1" stop-color="#6282AE"/></linearGradient></defs><rect width="800" height="1000" fill="#FBF7F0"/><polygon points="290.0,820.0 290.9,824.3 293.7,828.5 298.4,832.6 304.7,836.5 312.7,840.1 322.2,843.3 333.0,846.2 345.0,848.6 357.9,850.5 371.5,851.9 385.6,852.7 400.0,853.0 414.4,852.7 428.5,851.9 442.1,850.5 455.0,848.6 467.0,846.2 477.8,843.3 487.3,840.1 495.3,836.5 501.6,832.6 506.3,828.5 509.1,824.3 510.0,820.0 510.0,820.0 519.5,816.0 525.4,811.9 530.4,807.9 535.0,803.8 539.2,799.8 543.1,795.7 546.9,791.7 550.5,787.7 554.0,783.6 557.4,779.6 560.7,775.5 563.8,771.5 566.9,767.4 570.0,763.4 572.9,759.4 575.8,755.3 578.7,751.3 581.5,747.2 584.3,743.2 587.0,739.1 589.7,735.1 592.3,731.1 594.9,727.0 597.5,723.0 600.0,718.9 602.5,714.9 605.0,710.9 607.4,706.8 609.8,702.8 612.2,698.7 614.6,694.7 617.0,690.6 619.3,686.6 621.6,682.6 623.9,678.5 626.2,674.5 628.4,670.4 630.6,666.4 632.9,662.3 635.1,658.3 637.2,654.3 639.4,650.2 641.5,646.2 643.7,642.1 645.8,638.1 647.9,634.0 650.0,630.0 650.0,630.0 647.9,620.2 641.5,610.6 631.0,601.3 616.5,592.5 598.3,584.3 576.8,577.0 552.2,570.5 525.0,565.0 495.7,560.7 464.7,557.6 432.6,555.6 400.0,555.0 367.4,555.6 335.3,557.6 304.3,560.7 275.0,565.0 247.8,570.5 223.2,577.0 201.7,584.3 183.5,592.5 169.0,601.3 158.5,610.6 152.1,620.2 150.0,630.0 150.0,630.0 152.1,634.0 154.2,638.1 156.3,642.1 158.5,646.2 160.6,650.2 162.8,654.3 164.9,658.3 167.1,662.3 169.4,666.4 171.6,670.4 173.8,674.5 176.1,678.5 178.4,682.6 180.7,686.6 183.0,690.6 185.4,694.7 187.8,698.7 190.2,702.8 192.6,706.8 195.0,710.9 197.5,714.9 200.0,718.9 202.5,723.0 205.1,727.0 207.7,731.1 210.3,735.1 213.0,739.1 215.7,743.2 218.5,747.2 221.3,751.3 224.2,755.3 227.1,759.4 230.0,763.4 233.1,767.4 236.2,771.5 239.3,775.5 242.6,779.6 246.0,783.6 249.5,787.7 253.1,791.7 256.9,795.7 260.8,799.8 265.0,803.8 269.6,807.9 274.6,811.9 280.5,816.0 290.0,820.0" fill="url(#g1)"/><g fill="none" stroke="#6282AE" stroke-opacity="0.28" stroke-width="1.1"><polyline points="280.5,816.0 282.4,822.2 287.7,828.2 296.5,833.9 308.5,839.0 323.2,843.4 340.3,847.0 359.1,849.6 379.3,851.2 400.0,851.8 420.7,851.2 440.9,849.6 459.7,847.0 476.8,843.4 491.5,839.0 503.5,833.9 512.3,828.2 517.6,822.2 519.5,816.0"/><polyline points="274.6,811.9 276.5,818.4 282.2,824.8 291.4,830.7 304.0,836.1 319.4,840.7 337.3,844.5 357.1,847.3 378.2,849.0 400.0,849.5 421.8,849.0 442.9,847.3 462.7,844.5 480.6,840.7 496.0,836.1 508.6,830.7 517.8,824.8 523.5,818.4 525.4,811.9"/><polyline points="269.6,807.9 271.6,814.7 277.5,821.3 287.1,827.4 300.1,833.0 316.2,837.8 334.8,841.8 355.4,844.6 377.4,846.4 400.0,847.0 422.6,846.4 444.6,844.6 465.2,841.8 483.8,837.8 499.9,833.0 512.9,827.4 522.5,821.3 528.4,814.7 530.4,807.9"/><polyline points="265.0,803.8 267.1,810.9 273.2,817.7 283.1,824.1 296.6,829.9 313.3,834.8 332.5,838.9 353.8,841.9 376.6,843.7 400.0,844.3 423.4,843.7 446.2,841.9 467.5,838.9 486.7,834.8 503.4,829.9 516.9,824.1 526.8,817.7 532.9,810.9 535.0,803.8"/><polyline points="260.8,799.8 262.9,807.0 269.2,814.1 279.5,820.7 293.4,826.6 310.5,831.8 330.4,835.9 352.4,839.0 375.8,840.9 400.0,841.5 424.2,840.9 447.6,839.0 469.6,835.9 489.5,831.8 506.6,826.6 520.5,820.7 530.8,814.1 537.1,807.0 539.2,799.8"/><polyline points="256.9,795.7 259.0,803.2 265.5,810.4 276.0,817.2 290.3,823.3 308.0,828.6 328.4,832.9 351.0,836.1 375.1,838.0 400.0,838.7 424.9,838.0 449.0,836.1 471.6,832.9 492.0,828.6 509.7,823.3 524.0,817.2 534.5,810.4 541.0,803.2 543.1,795.7"/><polyline points="253.1,791.7 255.3,799.4 261.9,806.8 272.8,813.7 287.5,820.0 305.6,825.5 326.5,829.9 349.8,833.1 374.5,835.1 400.0,835.8 425.5,835.1 450.2,833.1 473.5,829.9 494.4,825.5 512.5,820.0 527.2,813.7 538.1,806.8 544.7,799.4 546.9,791.7"/><polyline points="249.5,787.7 251.8,795.5 258.5,803.1 269.6,810.2 284.7,816.7 303.2,822.3 324.7,826.8 348.5,830.1 373.9,832.1 400.0,832.8 426.1,832.1 451.5,830.1 475.3,826.8 496.8,822.3 515.3,816.7 530.4,810.2 541.5,803.1 548.2,795.5 550.5,787.7"/><polyline points="246.0,783.6 248.3,791.6 255.3,799.4 266.6,806.7 282.0,813.3 301.0,819.0 323.0,823.6 347.3,827.0 373.3,829.1 400.0,829.8 426.7,829.1 452.7,827.0 477.0,823.6 499.0,819.0 518.0,813.3 533.4,806.7 544.7,799.4 551.7,791.6 554.0,783.6"/><polyline points="242.6,779.6 245.0,787.8 252.1,795.7 263.7,803.2 279.4,809.9 298.8,815.7 321.3,820.5 346.2,823.9 372.7,826.1 400.0,826.8 427.3,826.1 453.8,823.9 478.7,820.5 501.2,815.7 520.6,809.9 536.3,803.2 547.9,795.7 555.0,787.8 557.4,779.6"/><polyline points="239.3,775.5 241.8,783.9 249.0,792.0 260.9,799.6 276.9,806.5 296.7,812.5 319.7,817.3 345.1,820.8 372.1,823.0 400.0,823.7 427.9,823.0 454.9,820.8 480.3,817.3 503.3,812.5 523.1,806.5 539.1,799.6 551.0,792.0 558.2,783.9 560.7,775.5"/><polyline points="236.2,771.5 238.7,780.0 246.0,788.3 258.1,796.1 274.5,803.1 294.7,809.1 318.1,814.1 344.0,817.7 371.5,819.9 400.0,820.6 428.5,819.9 456.0,817.7 481.9,814.1 505.3,809.1 525.5,803.1 541.9,796.1 554.0,788.3 561.3,780.0 563.8,771.5"/><polyline points="233.1,767.4 235.6,776.1 243.1,784.6 255.4,792.5 272.1,799.6 292.7,805.8 316.5,810.8 342.9,814.5 371.0,816.8 400.0,817.5 429.0,816.8 457.1,814.5 483.5,810.8 507.3,805.8 527.9,799.6 544.6,792.5 556.9,784.6 564.4,776.1 566.9,767.4"/><polyline points="230.0,763.4 232.6,772.3 240.3,780.8 252.8,788.9 269.8,796.2 290.7,802.5 315.0,807.6 341.9,811.3 370.5,813.6 400.0,814.4 429.5,813.6 458.1,811.3 485.0,807.6 509.3,802.5 530.2,796.2 547.2,788.9 559.7,780.8 567.4,772.3 570.0,763.4"/><polyline points="227.1,759.4 229.7,768.4 237.5,777.1 250.2,785.3 267.5,792.7 288.8,799.1 313.5,804.3 340.9,808.1 370.0,810.5 400.0,811.2 430.0,810.5 459.1,808.1 486.5,804.3 511.2,799.1 532.5,792.7 549.8,785.3 562.5,777.1 570.3,768.4 572.9,759.4"/><polyline points="224.2,755.3 226.8,764.5 234.8,773.4 247.7,781.7 265.3,789.2 287.0,795.7 312.1,801.0 339.9,804.9 369.5,807.3 400.0,808.1 430.5,807.3 460.1,804.9 487.9,801.0 513.0,795.7 534.7,789.2 552.3,781.7 565.2,773.4 573.2,764.5 575.8,755.3"/><polyline points="221.3,751.3 224.0,760.6 232.1,769.6 245.2,778.1 263.1,785.7 285.1,792.3 310.6,797.7 338.9,801.7 369.0,804.1 400.0,804.9 431.0,804.1 461.1,801.7 489.4,797.7 514.9,792.3 536.9,785.7 554.8,778.1 567.9,769.6 576.0,760.6 578.7,751.3"/><polyline points="218.5,747.2 221.3,756.7 229.4,765.9 242.8,774.5 261.0,782.2 283.3,788.9 309.2,794.4 337.9,798.4 368.5,800.9 400.0,801.7 431.5,800.9 462.1,798.4 490.8,794.4 516.7,788.9 539.0,782.2 557.2,774.5 570.6,765.9 578.7,756.7 581.5,747.2"/><polyline points="215.7,743.2 218.5,752.8 226.8,762.1 240.4,770.8 258.8,778.7 281.6,785.5 307.9,791.1 337.0,795.1 368.0,797.6 400.0,798.5 432.0,797.6 463.0,795.1 492.1,791.1 518.4,785.5 541.2,778.7 559.6,770.8 573.2,762.1 581.5,752.8 584.3,743.2"/><polyline points="213.0,739.1 215.9,748.9 224.3,758.3 238.1,767.2 256.8,775.2 279.8,782.1 306.5,787.7 336.0,791.9 367.5,794.4 400.0,795.2 432.5,794.4 464.0,791.9 493.5,787.7 520.2,782.1 543.2,775.2 561.9,767.2 575.7,758.3 584.1,748.9 587.0,739.1"/><polyline points="210.3,735.1 213.2,745.0 221.8,754.6 235.8,763.6 254.7,771.7 278.1,778.7 305.2,784.4 335.1,788.6 367.1,791.1 400.0,792.0 432.9,791.1 464.9,788.6 494.8,784.4 521.9,778.7 545.3,771.7 564.2,763.6 578.2,754.6 586.8,745.0 589.7,735.1"/><polyline points="207.7,731.1 210.6,741.1 219.3,750.8 233.5,759.9 252.7,768.1 276.4,775.3 303.9,781.0 334.2,785.3 366.6,787.9 400.0,788.8 433.4,787.9 465.8,785.3 496.1,781.0 523.6,775.3 547.3,768.1 566.5,759.9 580.7,750.8 589.4,741.1 592.3,731.1"/><polyline points="205.1,727.0 208.1,737.2 216.9,747.0 231.2,756.3 250.7,764.6 274.7,771.8 302.6,777.7 333.3,782.0 366.2,784.6 400.0,785.5 433.8,784.6 466.7,782.0 497.4,777.7 525.3,771.8 549.3,764.6 568.8,756.3 583.1,747.0 591.9,737.2 594.9,727.0"/><polyline points="202.5,723.0 205.5,733.3 214.4,743.2 229.0,752.6 248.7,761.1 273.1,768.4 301.3,774.3 332.5,778.6 365.7,781.3 400.0,782.2 434.3,781.3 467.5,778.6 498.7,774.3 526.9,768.4 551.3,761.1 571.0,752.6 585.6,743.2 594.5,733.3 597.5,723.0"/><polyline points="200.0,718.9 203.0,729.4 212.1,739.5 226.8,748.9 246.8,757.5 271.4,764.9 300.0,770.9 331.6,775.3 365.3,778.0 400.0,778.9 434.7,778.0 468.4,775.3 500.0,770.9 528.6,764.9 553.2,757.5 573.2,748.9 587.9,739.5 597.0,729.4 600.0,718.9"/><polyline points="197.5,714.9 200.6,725.4 209.7,735.7 224.6,745.3 244.9,753.9 269.8,761.4 298.8,767.5 330.7,772.0 364.8,774.7 400.0,775.6 435.2,774.7 469.3,772.0 501.2,767.5 530.2,761.4 555.1,753.9 575.4,745.3 590.3,735.7 599.4,725.4 602.5,714.9"/><polyline points="195.0,710.9 198.1,721.5 207.4,731.9 222.5,741.6 243.0,750.4 268.2,758.0 297.5,764.1 329.9,768.6 364.4,771.4 400.0,772.3 435.6,771.4 470.1,768.6 502.5,764.1 531.8,758.0 557.0,750.4 577.5,741.6 592.6,731.9 601.9,721.5 605.0,710.9"/><polyline points="192.6,706.8 195.7,717.6 205.1,728.1 220.4,737.9 241.1,746.8 266.7,754.5 296.3,760.7 329.1,765.3 364.0,768.1 400.0,769.0 436.0,768.1 470.9,765.3 503.7,760.7 533.3,754.5 558.9,746.8 579.6,737.9 594.9,728.1 604.3,717.6 607.4,706.8"/><polyline points="190.2,702.8 193.3,713.7 202.8,724.3 218.3,734.2 239.2,743.2 265.1,751.0 295.1,757.3 328.2,761.9 363.6,764.8 400.0,765.7 436.4,764.8 471.8,761.9 504.9,757.3 534.9,751.0 560.8,743.2 581.7,734.2 597.2,724.3 606.7,713.7 609.8,702.8"/><polyline points="187.8,698.7 191.0,709.8 200.6,720.5 216.2,730.6 237.4,739.7 263.6,747.5 293.9,753.9 327.4,758.6 363.1,761.4 400.0,762.4 436.9,761.4 472.6,758.6 506.1,753.9 536.4,747.5 562.6,739.7 583.8,730.6 599.4,720.5 609.0,709.8 612.2,698.7"/><polyline points="185.4,694.7 188.6,705.9 198.3,716.7 214.1,726.9 235.6,736.1 262.0,744.0 292.7,750.4 326.6,755.2 362.7,758.1 400.0,759.1 437.3,758.1 473.4,755.2 507.3,750.4 538.0,744.0 564.4,736.1 585.9,726.9 601.7,716.7 611.4,705.9 614.6,694.7"/><polyline points="183.0,690.6 186.3,701.9 196.1,712.9 212.1,723.2 233.8,732.5 260.5,740.5 291.5,747.0 325.8,751.8 362.3,754.7 400.0,755.7 437.7,754.7 474.2,751.8 508.5,747.0 539.5,740.5 566.2,732.5 587.9,723.2 603.9,712.9 613.7,701.9 617.0,690.6"/><polyline points="180.7,686.6 184.0,698.0 193.9,709.1 210.1,719.5 232.0,728.9 259.0,737.0 290.4,743.6 325.0,748.4 361.9,751.4 400.0,752.4 438.1,751.4 475.0,748.4 509.6,743.6 541.0,737.0 568.0,728.9 589.9,719.5 606.1,709.1 616.0,698.0 619.3,686.6"/><polyline points="178.4,682.6 181.8,694.1 191.8,705.3 208.1,715.8 230.2,725.3 257.6,733.5 289.2,740.1 324.2,745.0 361.5,748.0 400.0,749.0 438.5,748.0 475.8,745.0 510.8,740.1 542.4,733.5 569.8,725.3 591.9,715.8 608.2,705.3 618.2,694.1 621.6,682.6"/><polyline points="176.1,678.5 179.5,690.2 189.6,701.5 206.1,712.1 228.5,721.7 256.1,730.0 288.1,736.7 323.4,741.6 361.1,744.7 400.0,745.7 438.9,744.7 476.6,741.6 511.9,736.7 543.9,730.0 571.5,721.7 593.9,712.1 610.4,701.5 620.5,690.2 623.9,678.5"/><polyline points="173.8,674.5 177.3,686.2 187.5,697.7 204.1,708.4 226.7,718.1 254.6,726.4 286.9,733.2 322.6,738.2 360.7,741.3 400.0,742.3 439.3,741.3 477.4,738.2 513.1,733.2 545.4,726.4 573.3,718.1 595.9,708.4 612.5,697.7 622.7,686.2 626.2,674.5"/><polyline points="171.6,670.4 175.1,682.3 185.4,693.9 202.2,704.7 225.0,714.5 253.2,722.9 285.8,729.8 321.9,734.8 360.3,737.9 400.0,738.9 439.7,737.9 478.1,734.8 514.2,729.8 546.8,722.9 575.0,714.5 597.8,704.7 614.6,693.9 624.9,682.3 628.4,670.4"/><polyline points="169.4,666.4 172.9,678.4 183.3,690.0 200.3,701.0 223.3,710.9 251.7,719.4 284.7,726.3 321.1,731.4 359.9,734.5 400.0,735.6 440.1,734.5 478.9,731.4 515.3,726.3 548.3,719.4 576.7,710.9 599.7,701.0 616.7,690.0 627.1,678.4 630.6,666.4"/><polyline points="167.1,662.3 170.7,674.5 181.2,686.2 198.3,697.3 221.6,707.2 250.3,715.9 283.6,722.8 320.4,728.0 359.6,731.1 400.0,732.2 440.4,731.1 479.6,728.0 516.4,722.8 549.7,715.9 578.4,707.2 601.7,697.3 618.8,686.2 629.3,674.5 632.9,662.3"/><polyline points="164.9,658.3 168.5,670.5 179.1,682.4 196.4,693.6 219.9,703.6 248.9,712.3 282.5,719.4 319.6,724.6 359.2,727.7 400.0,728.8 440.8,727.7 480.4,724.6 517.5,719.4 551.1,712.3 580.1,703.6 603.6,693.6 620.9,682.4 631.5,670.5 635.1,658.3"/><polyline points="162.8,654.3 166.4,666.6 177.1,678.6 194.5,689.8 218.3,700.0 247.5,708.8 281.4,715.9 318.9,721.1 358.8,724.3 400.0,725.4 441.2,724.3 481.1,721.1 518.6,715.9 552.5,708.8 581.7,700.0 605.5,689.8 622.9,678.6 633.6,666.6 637.2,654.3"/><polyline points="160.6,650.2 164.2,662.7 175.0,674.8 192.7,686.1 216.6,696.4 246.1,705.2 280.3,712.4 318.1,717.7 358.4,720.9 400.0,722.0 441.6,720.9 481.9,717.7 519.7,712.4 553.9,705.2 583.4,696.4 607.3,686.1 625.0,674.8 635.8,662.7 639.4,650.2"/><polyline points="158.5,646.2 162.1,658.8 173.0,671.0 190.8,682.4 215.0,692.7 244.7,701.7 279.2,708.9 317.4,714.3 358.1,717.5 400.0,718.6 441.9,717.5 482.6,714.3 520.8,708.9 555.3,701.7 585.0,692.7 609.2,682.4 627.0,671.0 637.9,658.8 641.5,646.2"/><polyline points="156.3,642.1 160.0,654.8 171.0,667.1 189.0,678.7 213.3,689.1 243.4,698.1 278.2,705.4 316.7,710.8 357.7,714.1 400.0,715.2 442.3,714.1 483.3,710.8 521.8,705.4 556.6,698.1 586.7,689.1 611.0,678.7 629.0,667.1 640.0,654.8 643.7,642.1"/><polyline points="154.2,638.1 157.9,650.9 169.0,663.3 187.1,675.0 211.7,685.5 242.0,694.6 277.1,701.9 315.9,707.4 357.3,710.7 400.0,711.8 442.7,710.7 484.1,707.4 522.9,701.9 558.0,694.6 588.3,685.5 612.9,675.0 631.0,663.3 642.1,650.9 645.8,638.1"/><polyline points="152.1,634.0 155.9,647.0 167.0,659.5 185.3,671.2 210.1,681.8 240.6,691.0 276.0,698.5 315.2,703.9 357.0,707.3 400.0,708.4 443.0,707.3 484.8,703.9 524.0,698.5 559.4,691.0 589.9,681.8 614.7,671.2 633.0,659.5 644.1,647.0 647.9,634.0"/></g><g fill="none" stroke="#CFE0F4" stroke-opacity="0.35" stroke-width="2"><polyline points="530.1,810.4 534.5,807.3 538.4,804.2 542.0,801.2 545.3,798.2 548.4,795.3 551.2,792.4 553.8,789.5 556.3,786.7 558.5,783.9 560.6,781.1 562.5,778.4 564.2,775.6 565.8,772.9 567.1,770.2 568.4,767.6 569.4,764.9 570.3,762.3 571.0,759.7 571.6,757.1 572.0,754.5 572.3,751.9 572.4,749.4 572.3,746.8 572.1,744.3 571.7,741.7 571.2,739.2 570.5,736.7 569.6,734.1 568.6,731.6 567.4,729.1 566.1,726.6 564.6,724.0 563.0,721.5 561.2,719.0 559.3,716.4 557.2,713.9 554.9,711.3 552.6,708.8 550.0,706.2 547.3,703.6 544.5,701.0 541.5,698.4 538.4,695.8 535.1,693.1"/><polyline points="507.6,826.9 516.3,824.2 521.4,821.3 525.6,818.4 529.1,815.6 532.3,812.8 535.1,809.9 537.6,807.2 539.8,804.4 541.8,801.6 543.6,798.9 545.1,796.2 546.5,793.5 547.6,790.8 548.6,788.2 549.3,785.5 549.9,782.9 550.3,780.3 550.6,777.6 550.6,775.0 550.5,772.4 550.3,769.8 549.8,767.2 549.2,764.6 548.4,762.0 547.5,759.5 546.4,756.9 545.2,754.3 543.7,751.7 542.2,749.1 540.4,746.5 538.6,743.9 536.5,741.2 534.3,738.6 532.0,736.0 529.5,733.3 526.8,730.6 524.1,728.0 521.1,725.3 518.0,722.6 514.8,719.8 511.4,717.1 507.9,714.3 504.3,711.5 500.5,708.7 496.6,705.9 492.6,703.0 488.4,700.2"/><polyline points="500.5,833.4 508.1,831.2 512.2,828.7 515.5,826.0 518.2,823.4 520.4,820.7 522.3,818.1 523.9,815.4 525.2,812.8 526.2,810.1 527.0,807.5 527.6,804.8 528.0,802.2 528.2,799.5 528.1,796.9 527.9,794.3 527.5,791.6 527.0,789.0 526.2,786.4 525.3,783.7 524.2,781.1 522.9,778.4 521.5,775.8 519.9,773.1 518.1,770.4 516.2,767.8 514.1,765.1 511.9,762.4 509.5,759.7 507.0,756.9 504.3,754.2 501.4,751.4 498.5,748.6 495.3,745.8 492.1,743.0 488.7,740.2 485.1,737.3 481.5,734.4 477.7,731.5 473.7,728.6 469.7,725.6 465.5,722.7 461.2,719.7 456.7,716.6 452.2,713.5 447.5,710.4 442.7,707.3 437.8,704.1"/><polyline points="489.0,839.4 495.1,837.6 498.2,835.3 500.4,832.8 502.0,830.3 503.3,827.8 504.1,825.2 504.7,822.6 505.0,820.0 505.1,817.4 504.9,814.8 504.5,812.1 503.9,809.5 503.1,806.8 502.1,804.2 501.0,801.5 499.6,798.8 498.0,796.1 496.3,793.4 494.5,790.7 492.4,787.9 490.2,785.2 487.8,782.4 485.3,779.6 482.6,776.8 479.8,773.9 476.9,771.1 473.7,768.2 470.5,765.3 467.1,762.4 463.6,759.5 459.9,756.5 456.1,753.5 452.2,750.5 448.2,747.4 444.0,744.4 439.7,741.3 435.3,738.1 430.8,735.0 426.2,731.8 421.5,728.5 416.6,725.3 411.7,721.9 406.7,718.6 401.5,715.2 396.3,711.8 391.0,708.4 385.6,704.9"/><polyline points="473.6,844.5 478.0,843.1 479.8,840.9 480.9,838.6 481.4,836.1 481.6,833.6 481.5,831.1 481.0,828.5 480.3,825.9 479.4,823.2 478.2,820.5 476.9,817.9 475.3,815.1 473.6,812.4 471.7,809.6 469.6,806.9 467.3,804.1 464.8,801.2 462.2,798.4 459.5,795.5 456.6,792.6 453.5,789.7 450.4,786.7 447.0,783.8 443.6,780.8 440.0,777.7 436.2,774.7 432.4,771.6 428.4,768.5 424.3,765.3 420.1,762.1 415.8,758.9 411.3,755.6 406.8,752.4 402.1,749.0 397.4,745.7 392.6,742.3 387.6,738.8 382.6,735.4 377.5,731.9 372.3,728.3 367.1,724.7 361.7,721.1 356.3,717.4 350.8,713.7 345.3,710.0 339.7,706.2 334.0,702.3"/><polyline points="455.0,848.6 457.5,847.4 458.0,845.3 457.9,842.9 457.3,840.5 456.4,838.0 455.2,835.4 453.8,832.7 452.1,830.0 450.2,827.3 448.1,824.5 445.9,821.7 443.4,818.9 440.8,816.0 438.0,813.1 435.1,810.2 432.0,807.2 428.8,804.2 425.4,801.1 421.9,798.1 418.3,795.0 414.5,791.8 410.7,788.7 406.7,785.5 402.6,782.2 398.3,778.9 394.0,775.6 389.6,772.3 385.0,768.9 380.4,765.4 375.7,762.0 370.9,758.5 366.0,754.9 361.1,751.3 356.0,747.7 350.9,744.0 345.7,740.3 340.5,736.6 335.2,732.8 329.8,728.9 324.4,725.1 318.9,721.1 313.4,717.2 307.9,713.2 302.3,709.1 296.7,705.0 291.0,700.8 285.4,696.6"/><polyline points="434.0,851.4 434.5,850.3 433.6,848.1 432.3,845.8 430.6,843.3 428.7,840.6 426.5,837.9 424.2,835.2 421.6,832.4 418.8,829.5 415.9,826.5 412.9,823.6 409.6,820.6 406.3,817.5 402.8,814.4 399.1,811.2 395.4,808.1 391.5,804.8 387.5,801.6 383.4,798.2 379.2,794.9 374.9,791.5 370.5,788.1 366.0,784.6 361.5,781.1 356.8,777.5 352.1,773.9 347.2,770.3 342.4,766.6 337.4,762.9 332.4,759.1 327.3,755.3 322.2,751.4 317.0,747.5 311.8,743.5 306.6,739.6 301.3,735.5 295.9,731.4 290.6,727.3 285.2,723.1 279.8,718.9 274.3,714.6 268.9,710.3 263.5,705.9 258.0,701.5 252.6,697.1 247.1,692.6 241.7,688.0"/><polyline points="411.5,852.8 410.0,851.7 407.8,849.5 405.3,847.0 402.6,844.3 399.8,841.5 396.7,838.7 393.5,835.7 390.1,832.7 386.7,829.6 383.0,826.5 379.3,823.3 375.4,820.1 371.4,816.8 367.4,813.4 363.2,810.1 358.9,806.6 354.6,803.1 350.1,799.6 345.6,796.0 341.0,792.4 336.4,788.7 331.7,785.0 326.9,781.2 322.0,777.4 317.1,773.5 312.2,769.6 307.2,765.7 302.2,761.7 297.1,757.6 292.0,753.5 286.9,749.4 281.8,745.2 276.6,741.0 271.5,736.7 266.3,732.4 261.1,728.0 255.9,723.6 250.7,719.1 245.6,714.6 240.4,710.1 235.3,705.5 230.1,700.8 225.0,696.1 219.9,691.4 214.9,686.6 209.9,681.8 204.9,676.9"/><polyline points="388.5,852.8 385.0,851.5 381.6,849.1 378.1,846.4 374.5,843.6 370.8,840.6 367.0,837.5 363.1,834.4 359.1,831.1 355.0,827.8 350.9,824.4 346.6,821.0 342.3,817.5 337.9,813.9 333.4,810.3 328.9,806.7 324.3,802.9 319.6,799.2 314.9,795.3 310.2,791.5 305.4,787.5 300.6,783.6 295.8,779.5 290.9,775.5 286.0,771.4 281.1,767.2 276.2,763.0 271.2,758.7 266.3,754.4 261.4,750.0 256.4,745.6 251.5,741.2 246.6,736.7 241.6,732.1 236.7,727.5 231.9,722.9 227.0,718.2 222.2,713.5 217.4,708.7 212.7,703.9 208.0,699.0 203.4,694.1 198.8,689.1 194.2,684.1 189.7,679.1 185.3,674.0 181.0,668.9 176.7,663.7"/><polyline points="366.0,851.4 360.7,849.8 356.2,847.2 351.9,844.2 347.5,841.1 343.2,837.9 338.8,834.6 334.4,831.1 329.9,827.6 325.4,824.0 320.9,820.4 316.3,816.7 311.7,812.9 307.0,809.0 302.3,805.1 297.7,801.2 292.9,797.2 288.2,793.1 283.5,789.0 278.7,784.8 274.0,780.6 269.2,776.3 264.5,772.0 259.7,767.6 255.0,763.2 250.3,758.7 245.6,754.2 240.9,749.6 236.2,745.0 231.6,740.3 227.1,735.6 222.5,730.9 218.0,726.1 213.6,721.2 209.2,716.3 204.8,711.4 200.5,706.4 196.3,701.4 192.1,696.4 188.0,691.3 184.0,686.1 180.1,680.9 176.2,675.7 172.4,670.5 168.7,665.2 165.1,659.8 161.6,654.4 158.2,649.0"/><polyline points="345.0,848.6 338.1,846.6 332.8,843.7 327.7,840.4 322.8,837.0 318.0,833.5 313.2,829.9 308.5,826.2 303.7,822.4 299.0,818.5 294.3,814.6 289.6,810.5 284.9,806.5 280.2,802.3 275.6,798.1 270.9,793.9 266.3,789.6 261.7,785.2 257.1,780.8 252.5,776.3 248.0,771.8 243.5,767.3 239.1,762.6 234.7,758.0 230.3,753.3 226.0,748.5 221.7,743.7 217.5,738.8 213.4,734.0 209.3,729.0 205.3,724.0 201.3,719.0 197.4,714.0 193.6,708.9 189.9,703.7 186.3,698.5 182.7,693.3 179.3,688.0 175.9,682.7 172.6,677.4 169.5,672.0 166.4,666.6 163.4,661.2 160.6,655.7 157.8,650.2 155.2,644.7 152.7,639.1"/><polyline points="326.4,844.5 318.2,842.1 312.2,838.8 306.7,835.2 301.5,831.5 296.4,827.7 291.5,823.7 286.6,819.7 281.8,815.6 277.0,811.4 272.4,807.2 267.7,802.9 263.2,798.5 258.7,794.1 254.2,789.6 249.8,785.1 245.5,780.5 241.2,775.8 236.9,771.2 232.8,766.4 228.7,761.6 224.7,756.8 220.7,751.9 216.8,747.0 213.0,742.0 209.3,737.0 205.6,731.9 202.1,726.9 198.6,721.7 195.2,716.5 192.0,711.3 188.8,706.1 185.7,700.8 182.7,695.5 179.8,690.1 177.1,684.8 174.4,679.3 171.9,673.9"/><polyline points="311.0,839.4 301.9,836.4 295.5,832.7 289.8,828.8 284.5,824.8 279.4,820.6 274.4,816.4 269.6,812.0 265.0,807.6 260.4,803.2 256.0,798.6 251.7,794.0 247.4,789.4 243.3,784.7 239.2,779.9 235.3,775.1 231.4,770.3 227.6,765.4 223.9,760.5 220.3,755.5 216.9,750.4 213.5,745.4 210.2,740.3 207.0,735.1 203.9,729.9 200.9,724.7 198.1,719.5 195.3,714.2"/><polyline points="299.5,833.4 289.9,829.8 283.4,825.7 277.7,821.5 272.5,817.1 267.6,812.6 262.9,808.1 258.4,803.5 254.1,798.8 249.9,794.0 245.9,789.2 242.1,784.4 238.3,779.5 234.7,774.5 231.3,769.6 227.9,764.5 224.7,759.5 221.6,754.3"/><polyline points="292.4,826.9 282.7,822.7 276.4,818.2 271.0,813.5 266.1,808.9 261.6,804.1 257.3,799.3 253.4,794.4"/><polyline points="639.0,654.2 640.8,651.8 642.5,649.3 644.0,646.9 645.4,644.5 646.7,642.1"/><polyline points="616.7,694.1 618.7,691.4 620.6,688.9 622.4,686.3 624.0,683.8 625.5,681.3 626.9,678.8 628.1,676.3 629.2,673.9 630.2,671.5 631.0,669.0 631.7,666.7 632.2,664.3 632.6,661.9 632.8,659.6 632.9,657.2"/><polyline points="594.4,731.1 596.6,728.4 598.7,725.7 600.7,723.0 602.5,720.4 604.2,717.8 605.7,715.2 607.2,712.6 608.4,710.0 609.6,707.5 610.6,705.0 611.4,702.5 612.1,700.0 612.7,697.5 613.1,695.1 613.4,692.7 613.5,690.2 613.4,687.8 613.3,685.4 612.9,683.0 612.4,680.7 611.8,678.3 611.0,675.9 610.1,673.5 609.0,671.2"/><polyline points="566.6,770.8 569.3,767.9 571.9,765.0 574.3,762.2 576.6,759.4 578.8,756.6 580.8,753.9 582.6,751.2 584.3,748.5 585.9,745.8 587.3,743.2 588.6,740.6 589.7,738.0 590.7,735.4 591.5,732.8 592.1,730.3 592.7,727.7 593.0,725.2 593.2,722.7 593.3,720.2 593.2,717.7 593.0,715.2 592.6,712.8 592.0,710.3 591.3,707.9 590.5,705.4 589.5,702.9 588.3,700.5 587.0,698.1 585.5,695.6 583.9,693.2 582.1,690.7 580.2,688.2 578.1,685.8 575.9,683.3"/></g><ellipse cx="400.0" cy="630.0" rx="250.0" ry="75.0" fill="#6282AE" stroke="#CFE0F4" stroke-opacity="0.5" stroke-width="1.5"/><ellipse cx="400.0" cy="648.8" rx="215.0" ry="52.5" fill="#000" opacity="0.55"/><ellipse cx="400" cy="838" rx="187.5" ry="32.0" fill="#000" opacity="0.3" filter="url(#blur)"/></svg>